<svg xmlns="http://www.w3.org/2000/svg" width="24" height="24" viewBox="0 0 24 24" fill="none" stroke="currentColor" stroke-width="2" stroke-linecap="round" stroke-linejoin="round">
<path d="M12 4 C9 5 7 9 8 13 C9 17 11 19 12 20 C13 19 15 17 16 13 C17 9 15 5 12 4 Z" />
<path d="M12 4 L10 6 L9 7 L11 6.5 L12 7.5 L13 6.5 L15 7 L14 6 Z" />
<circle cx="10" cy="10" r="0.4" fill="currentColor" stroke="none" />
<circle cx="11.5" cy="12" r="0.4" fill="currentColor" stroke="none" />
<circle cx="13" cy="10.5" r="0.4" fill="currentColor" stroke="none" />
<circle cx="10.5" cy="14" r="0.4" fill="currentColor" stroke="none" />
<circle cx="12" cy="15" r="0.4" fill="currentColor" stroke="none" />
<circle cx="13.5" cy="14" r="0.4" fill="currentColor" stroke="none" />
</svg>